<?xml version="1.0" encoding="utf-8"?>
<!-- Generator: Adobe Illustrator 25.2.0, SVG Export Plug-In . SVG Version: 6.00 Build 0)  -->
<svg version="1.1" xmlns="http://www.w3.org/2000/svg" xmlns:xlink="http://www.w3.org/1999/xlink" x="0px" y="0px"
	 viewBox="0 0 500 500" style="enable-background:new 0 0 500 500;" xml:space="preserve">
<style type="text/css">
	.st0{fill:#F0F0F0;}
	.st1{fill:#E0E0E0;}
	.st2{fill:#27DEBF;}
	.st3{opacity:0.15;}
	.st4{fill:#FFFFFF;}
	.st5{fill:#EBEBEB;}
	.st6{opacity:0.9;fill:#27DEBF;}
	.st7{opacity:0.7;}
	.st8{opacity:0.8;}
	.st9{opacity:0.2;fill:#27DEBF;}
	.st10{fill:#455A64;}
	.st11{opacity:0.8;fill:#27DEBF;}
	.st12{opacity:0.2;}
	.st13{fill:#FAFAFA;}
	.st14{fill:#FFBDA7;}
	.st15{font-family:'Rubik-Bold';}
	.st16{font-size:51.5244px;}
	.st17{font-size:8.5188px;}
	.st18{font-size:9.2255px;}
	.st19{opacity:0.1;}
	.st20{font-size:21.3132px;}
	.st21{font-size:24.8263px;}
	.st22{opacity:0.35;}
	.st23{opacity:0.25;}
	.st24{opacity:0.45;}
	.st25{opacity:0.55;}
	.st26{fill:#B16668;}
	.st27{fill:#263238;}
	.st28{fill:#9A4A4D;}
</style>
<g id="Floor">
	<ellipse id="Floor_1_" class="st0" cx="250" cy="357.44" rx="239.42" ry="125.97"/>
</g>
<g id="Shadows">
	<ellipse id="Shadow_12_" class="st1" cx="366.74" cy="383.11" rx="70.72" ry="40.83"/>
	<path id="Shadow_2_" class="st1" d="M41.98,388.37l4.04,2.33c1.27,0.74,3.34,0.74,4.61,0l241.94-139.68c1.27-0.74,1.27-1.93,0-2.66
		l-4.04-2.33c-1.27-0.74-3.34-0.74-4.61,0L41.98,385.71C40.71,386.44,40.71,387.64,41.98,388.37z"/>
</g>
<g id="Plants_2_">
	<g id="Plants_3_">
		<g id="XMLID_119_">
			<g id="XMLID_122_">
				<path id="XMLID_124_" class="st2" d="M398.29,347.2c0,0,0.15-17.61,5.44-31.85c5.29-14.23,14.6-24.42,24.68-27.47
					c10.09-3.04,20.77,7.34,11.2,16.22c-9.57,8.87-27.65,19.74-31.35,45.95L398.29,347.2z"/>
				<path id="XMLID_123_" class="st3" d="M398.29,347.2c0,0,0.15-17.61,5.44-31.85c5.29-14.23,14.6-24.42,24.68-27.47
					c10.09-3.04,20.77,7.34,11.2,16.22c-9.57,8.87-27.65,19.74-31.35,45.95L398.29,347.2z"/>
			</g>
			<g id="XMLID_120_">
				<path id="XMLID_121_" class="st4" d="M402.48,344.53c-0.04,0-0.08,0-0.12,0c-0.32-0.04-0.54-0.34-0.5-0.66
					c4.17-30.43,22.55-47.37,31.68-52.08c0.29-0.15,0.64-0.03,0.79,0.25c0.15,0.29,0.04,0.64-0.25,0.79
					c-8.95,4.61-26.96,21.25-31.06,51.2C402.98,344.31,402.75,344.52,402.48,344.53z"/>
			</g>
		</g>
		<g id="XMLID_111_">
			<g id="XMLID_116_">
				<g id="XMLID_117_">
					<path id="XMLID_118_" class="st2" d="M397.46,364.08c0.25-2.55,0.05-4.66-0.53-7.14c-0.58-2.49-2.09-4.87-2.2-7.46
						c-0.09-2.08,1.2-4.44,2.68-5.84c1.52-1.45,3.54-2.46,4.56-4.3c1.05-1.88,0.82-4.19,1.32-6.28c0.54-2.3,2.01-4.36,3.99-5.63
						c1.99-1.27,4.48-1.73,6.79-1.25c2.17,0.45,4.1,1.66,6.09,2.64c2.07,1.02,4.17,1.63,6.49,1.26c2.47-0.4,4.9-0.79,7.41-0.79
						c4.23,0.01,9.57,1.44,11.02,5.92c0.36,1.11,0.5,2.33,0.12,3.42c-0.02,0.05-0.03,0.09-0.05,0.14c-1.23,3.04-5.09,3.65-7.58,5.14
						c-0.68,0.41-1.81,0.98-2.07,1.81c-0.26,0.83,0.45,1.95,0.81,2.71c0.9,1.96,2.21,3.84,2.33,6.06c0.17,3.17-2.49,6.22-5.16,7.57
						c-2.56,1.29-5.52,1.58-8.38,1.46c-1.42-0.06-2.97-0.18-4.14,0.63c-1.02,0.71-1.5,1.98-1.65,3.2c-0.15,1.23-0.04,2.48-0.15,3.71
						c-0.37,3.9-3.2,7.38-6.83,8.83c-3.01,1.21-6.46,1.07-9.46-0.11c-2.48-0.98-4.61-3.97-5.09-6.57
						C397.21,370.33,397.16,367.02,397.46,364.08z"/>
				</g>
			</g>
			<g id="XMLID_114_">
				<path id="XMLID_115_" class="st4" d="M398.48,371.34c-0.01,0-0.03,0-0.04,0c-0.26-0.04-0.44-0.27-0.4-0.53
					c4.1-29.27,33.47-37,40.52-37.35c0.26-0.01,0.48,0.19,0.49,0.45c0.01,0.26-0.19,0.48-0.45,0.49
					c-6.9,0.34-35.62,7.91-39.63,36.54C398.94,371.18,398.72,371.35,398.48,371.34z"/>
			</g>
			<g id="XMLID_112_">
				<path id="XMLID_113_" class="st4" d="M429.91,352.93c-0.09-0.01-0.18-0.04-0.26-0.1c-0.08-0.07-8.62-6.65-21.02-3.25
					c-0.25,0.07-0.51-0.08-0.58-0.33c-0.07-0.25,0.08-0.51,0.33-0.58c12.89-3.53,21.77,3.35,21.85,3.42
					c0.2,0.16,0.24,0.46,0.08,0.66C430.21,352.87,430.06,352.94,429.91,352.93z"/>
			</g>
		</g>
	</g>
</g>
<g id="Clouds">
	<g id="Clouds_3_">
		<g>
			<g id="XMLID_46_">
				<path class="st5" d="M93.93,77.67l-3.44,1.99v-9.22c-0.04-9.55-4.97-13.03-11.23-9.5l0,0c-6.27,3.53-11.75,10.65-12.24,20.23
					l-0.09,1.76c-1.33-1.04-3.11-1.12-5.12,0.01h0c-7.02,3.64-8.45,10.19-8.81,17.09l-0.04,0.8l-5.78,3.34
					c-2.97,1.67-5.57,6.63-5.8,11.17c-0.23,4.54,1.99,7.2,4.96,5.52l46.75-26.99c2.97-1.67,5.57-6.38,5.8-10.93
					C99.12,78.41,96.9,76,93.93,77.67z"/>
			</g>
			<g id="XMLID_37_">
				<path class="st5" d="M149.15,91.32l-6.62,3.82c0.05-0.39,0.09-0.86,0.11-1.24l0.13-2.54c0.23-4.52-1.98-6.84-4.93-5.17
					c-1.2,0.67-2.33,1.9-3.27,3.42c-0.17-5.78-3.3-8.58-7.39-6.27c-4.42,2.49-8.29,9.99-8.64,16.76c0,0,0,2.58,0,3.7
					c0,1.11,0,3.02,0.23,4.64l-5.5,3.18c-1.64,0.92-3.07,3.63-3.2,6.14c-0.13,2.51,1.1,4.04,2.74,3.12l35.88-20.71
					c1.64-0.92,3.07-3.45,3.2-5.96C152.01,91.68,150.79,90.39,149.15,91.32z"/>
			</g>
		</g>
	</g>
</g>
<g id="Screen">
	<g id="Weather">
		<path class="st6" d="M36.66,195.29v13.61v140.43c0,1.18,0.26,2.31,0.7,3.23c0.22,0.48,0.5,0.9,0.82,1.25
			c0.3,0.36,0.55,0.53,1.04,0.84c0.11,0.07,7.6,4.37,7.82,4.51c-0.06-0.04-0.33-0.16-0.81-0.61c-0.48-0.44-0.84-0.98-1.12-1.61
			c-0.36-0.86-0.58-1.89-0.64-3.09V213.49v-13.75c0-1.81,0.61-3.79,1.58-5.6l-7.79-4.5C37.28,191.46,36.66,193.47,36.66,195.29z"/>
		<path class="st6" d="M36.66,195.29v13.61v140.43c0,1.18,0.26,2.31,0.7,3.23c0.22,0.48,0.5,0.9,0.82,1.25
			c0.3,0.36,0.55,0.53,1.04,0.84c0.11,0.07,7.6,4.37,7.82,4.51c-0.06-0.04-0.33-0.16-0.81-0.61c-0.48-0.44-0.84-0.98-1.12-1.61
			c-0.36-0.86-0.58-1.89-0.64-3.09V213.49v-13.75c0-1.81,0.61-3.79,1.58-5.6l-7.79-4.5C37.28,191.46,36.66,193.47,36.66,195.29z"/>
		<path id="XMLID_13_" class="st2" d="M295.2,55.07v155.62c0,3.92-2.75,8.65-6.12,10.6L50.59,358.99c-0.7,0.4-1.41,0.6-2.03,0.58
			c-0.26,0-0.52-0.04-0.78-0.1c-0.18-0.04-0.36-0.1-0.52-0.18c-0.12-0.06-0.22-0.12-0.32-0.18c-0.12-0.08-0.24-0.16-0.36-0.24
			c-0.12-0.1-0.24-0.18-0.34-0.3c-0.48-0.44-0.84-0.98-1.12-1.61c-0.4-0.9-0.64-1.97-0.64-3.09V199.73c0-3.9,2.75-8.65,6.12-10.6
			L289.07,51.54c1.59-0.9,3.01-1.04,4.12-0.52c0.18,0.08,0.36,0.18,0.52,0.3c0.02,0.02,0.04,0.04,0.04,0.04
			c0.16,0.12,0.28,0.24,0.4,0.4c0.08,0.06,0.12,0.14,0.18,0.22c0.08,0.1,0.16,0.2,0.2,0.32c0.16,0.24,0.28,0.5,0.36,0.78
			c0.06,0.16,0.12,0.34,0.14,0.54c0.02,0.04,0.04,0.08,0.02,0.12c0.06,0.18,0.08,0.36,0.1,0.56
			C295.18,54.55,295.2,54.81,295.2,55.07z"/>
		<g id="XMLID_398_" class="st7">
			<path class="st4" d="M295.2,55.07v155.62c0,3.92-2.75,8.65-6.12,10.6L50.59,358.99c-0.7,0.4-1.41,0.6-2.03,0.58
				c-0.26,0-0.52-0.04-0.78-0.1c-0.18-0.04-0.36-0.1-0.52-0.18c-0.12-0.06-0.22-0.12-0.32-0.18c-0.12-0.08-0.24-0.16-0.36-0.24
				c-0.12-0.1-0.24-0.18-0.34-0.3c-0.48-0.44-0.84-0.98-1.12-1.61c-0.4-0.9-0.64-1.97-0.64-3.09V199.73c0-3.9,2.75-8.65,6.12-10.6
				L289.07,51.54c1.59-0.9,3.01-1.04,4.12-0.52c0.18,0.08,0.36,0.18,0.52,0.3c0.02,0.02,0.04,0.04,0.04,0.04
				c0.16,0.12,0.28,0.24,0.4,0.4c0.08,0.06,0.12,0.14,0.18,0.22c0.08,0.1,0.16,0.2,0.2,0.32c0.16,0.24,0.28,0.5,0.36,0.78
				c0.06,0.16,0.12,0.34,0.14,0.54c0.02,0.04,0.04,0.08,0.02,0.12c0.06,0.18,0.08,0.36,0.1,0.56
				C295.18,54.55,295.2,54.81,295.2,55.07z"/>
		</g>
		<path class="st2" d="M285.7,46.76c-1.12-0.68-2.69-0.66-4.44,0.36L42.76,184.71c-0.44,0.25-0.87,0.56-1.28,0.9
			c-0.07,0.05-0.13,0.12-0.19,0.18c-0.35,0.3-0.69,0.63-1.02,0.98c-0.03,0.03-0.05,0.06-0.08,0.09c-0.73,0.83-1.39,1.77-1.93,2.77
			c0,0,0,0,0,0l7.79,4.5c0.54-1.01,1.2-1.96,1.94-2.8c0.03-0.04,0.06-0.08,0.1-0.12c0.32-0.36,0.66-0.68,1.01-0.98
			c0.07-0.06,0.14-0.13,0.21-0.19c0.41-0.34,0.84-0.65,1.28-0.9c0,0,0.01,0,0.01-0.01L289.07,51.54c1.59-0.9,3.01-1.04,4.12-0.52
			C291.88,50.33,286.8,47.42,285.7,46.76z"/>
		<g class="st8">
			<path class="st4" d="M285.7,46.76c-1.12-0.68-2.69-0.66-4.44,0.36L42.76,184.71c-0.44,0.25-0.87,0.56-1.28,0.9
				c-0.07,0.05-0.13,0.12-0.19,0.18c-0.35,0.3-0.69,0.63-1.02,0.98c-0.03,0.03-0.05,0.06-0.08,0.09c-0.73,0.83-1.39,1.77-1.93,2.77
				c0,0,0,0,0,0l7.79,4.5c0.54-1.01,1.2-1.96,1.94-2.8c0.03-0.04,0.06-0.08,0.1-0.12c0.32-0.36,0.66-0.68,1.01-0.98
				c0.07-0.06,0.14-0.13,0.21-0.19c0.41-0.34,0.84-0.65,1.28-0.9c0,0,0.01,0,0.01-0.01L289.07,51.54c1.59-0.9,3.01-1.04,4.12-0.52
				C291.88,50.33,286.8,47.42,285.7,46.76z"/>
		</g>
		<polygon class="st9" points="38.26,189.63 38.26,189.63 38.26,189.63 		"/>
		<g>
			<g id="XMLID_3521_">
				<path id="XMLID_3522_" class="st10" d="M59.63,195.03C59.63,195.03,59.63,195.03,59.63,195.03c-0.01-0.01-0.03-0.02-0.05-0.03
					c-0.71-0.4-1.65-0.34-2.69,0.25c-1.56,0.9-2.92,2.8-3.56,4.8c-0.25,0.79-0.36,1.21-0.36,1.97v0.61c0,2.07,2.31,4.86,3.39,5.85
					c0.03,0.02,0.05,0.04,0.08,0.06c0,0,0,0,0.01,0c0.26,0.16,0.62,0.07,0.76-0.22c0.93-1.91,3.65-7.65,3.65-9.88v-0.61
					C60.85,196.46,60.39,195.49,59.63,195.03z M55.41,201.64c-0.01-0.04-0.02-0.08-0.03-0.13c-0.02-0.11-0.03-0.24-0.03-0.37
					c0-1.15,0.81-2.56,1.81-3.14c0.11-0.06,0.22-0.12,0.33-0.16c0.09-0.03,0.18-0.06,0.27-0.07c0.71-0.12,1.21,0.36,1.21,1.27
					c0,1.15-0.81,2.56-1.81,3.14C56.32,202.69,55.61,202.43,55.41,201.64z"/>
			</g>
			<path class="st11" d="M64.79,195.66c0,1.05,0.78,1.44,1.75,0.88l16.19-9.35c0.97-0.56,1.75-1.86,1.75-2.9
				c0-1.05-0.78-1.44-1.75-0.88l-16.19,9.35C65.57,193.31,64.79,194.61,64.79,195.66z"/>
			<path class="st12" d="M64.79,195.66c0,1.05,0.78,1.44,1.75,0.88l16.19-9.35c0.97-0.56,1.75-1.86,1.75-2.9
				c0-1.05-0.78-1.44-1.75-0.88l-16.19,9.35C65.57,193.31,64.79,194.61,64.79,195.66z"/>
			<path class="st2" d="M65.84,200.13l12.36-7.2c0.58-0.33,1.05-0.1,1.05,0.53c0,0.63-0.47,1.41-1.05,1.74l-12.36,7.2
				c-0.58,0.33-1.05,0.1-1.05-0.53S65.26,200.46,65.84,200.13z"/>
			<g>
				<path id="XMLID_291_" class="st13" d="M136.05,245.1l-2.46,1.37v-5.83c0-4.29-3.43-5.31-7.14-3.15l0,0
					c-3.72,2.16-6.73,7.39-6.73,11.69v0.79c-0.84-0.33-1.93-0.2-3.12,0.49h0c-2.68,1.56-4.85,5.32-4.85,8.41v0.36l-3.43,1.99
					c-1.76,1.02-3.19,3.5-3.19,5.54c0,2.03,1.43,2.85,3.19,1.83l27.73-16.12c1.76-1.02,3.19-3.5,3.19-5.54
					C139.25,244.9,137.82,244.08,136.05,245.1z"/>
				<path class="st14" d="M121.57,240.33c-1.79,2.47-2.94,5.52-3,8.29c-0.84-0.04-1.79,0.24-2.72,0.78
					c-1.75,1.01-3.27,2.84-4.22,4.87c-1.88-0.26-3.12-1.93-3.12-4.66c0-4.19,2.97-9.29,6.64-11.41
					C118.31,236.39,120.92,237.37,121.57,240.33z"/>
			</g>
			<text transform="matrix(0.6495 -0.375 0 1 56.7454 256.696)" class="st10 st15 st16">24°C</text>
			<g>
				<path class="st2" d="M52.98,268.22c-0.18,0-0.36-0.1-0.46-0.27c-0.15-0.25-0.06-0.58,0.19-0.73l90.83-52.44
					c0.25-0.15,0.58-0.06,0.73,0.19c0.15,0.25,0.06,0.58-0.19,0.73l-90.83,52.44C53.16,268.2,53.07,268.22,52.98,268.22z"/>
			</g>
			<text transform="matrix(0.6495 -0.375 0 1 78.9789 267.7004)" class="st10 st15 st17">27°C</text>
			<text transform="matrix(0.6495 -0.375 0 1 78.9797 282.6823)" class="st10 st15 st17">11°C</text>
			<g>
				<text transform="matrix(0.6495 -0.375 0 1 80.4166 300.6203)" class="st10 st15 st18">75%</text>
			</g>
			<g>
				<text transform="matrix(0.6495 -0.375 0 1 112.4555 282.0622)" class="st10 st15 st18">15 km/h</text>
			</g>
			<g>
				<text transform="matrix(0.6495 -0.375 0 1 61.6769 277.6896)" class="st10 st15 st17">MAX</text>
			</g>
			<g>
				<text transform="matrix(0.6495 -0.375 0 1 61.6769 292.6721)" class="st10 st15 st17">MIN</text>
			</g>
			<g>
				<g>
					<path id="XMLID_269_" class="st2" d="M74.37,299.9l-1.01,0.56v-2.4c0-1.77-1.41-2.19-2.94-1.3l0,0
						c-1.53,0.89-2.77,3.05-2.77,4.82v0.32c-0.35-0.14-0.8-0.08-1.29,0.2l0,0c-1.1,0.64-2,2.19-2,3.47v0.15l-1.41,0.82
						c-0.73,0.42-1.31,1.44-1.31,2.28c0,0.84,0.59,1.18,1.31,0.75l11.43-6.64c0.73-0.42,1.31-1.44,1.31-2.28
						C75.68,299.82,75.1,299.48,74.37,299.9z"/>
					<g>
						<g id="XMLID_344_">
							<g>
								<path id="XMLID_55_" class="st2" d="M65.6,311.77C65.6,311.77,65.6,311.77,65.6,311.77
									C65.6,311.77,65.61,311.77,65.6,311.77c0.11,0.11,0.26,0.12,0.41,0.03c0.24-0.14,0.44-0.48,0.54-0.86
									c0.04-0.15,0.05-0.23,0.05-0.39v-0.12c0-0.42-0.35-1.04-0.51-1.28c0-0.01-0.01-0.01-0.01-0.01c0,0,0,0,0,0
									c-0.04-0.04-0.09-0.03-0.11,0.02c-0.14,0.36-0.55,1.43-0.55,1.88v0.12C65.42,311.44,65.49,311.65,65.6,311.77z"/>
							</g>
						</g>
						<g id="XMLID_373_">
							<g>
								<path id="XMLID_61_" class="st2" d="M69.15,309.72C69.15,309.72,69.15,309.72,69.15,309.72
									C69.15,309.72,69.15,309.73,69.15,309.72c0.11,0.11,0.26,0.12,0.41,0.03c0.24-0.14,0.44-0.48,0.54-0.86
									c0.04-0.15,0.05-0.23,0.05-0.39v-0.12c0-0.42-0.35-1.04-0.51-1.28c0-0.01-0.01-0.01-0.01-0.01c0,0,0,0,0,0
									c-0.04-0.04-0.09-0.03-0.11,0.02c-0.14,0.36-0.55,1.43-0.55,1.88v0.12C68.96,309.4,69.03,309.61,69.15,309.72z"/>
							</g>
						</g>
						<g id="XMLID_488_">
							<g>
								<path id="XMLID_53_" class="st2" d="M72.69,307.67C72.69,307.67,72.69,307.67,72.69,307.67
									C72.69,307.68,72.7,307.68,72.69,307.67c0.11,0.11,0.26,0.12,0.41,0.03c0.24-0.14,0.44-0.48,0.54-0.86
									c0.04-0.15,0.05-0.23,0.05-0.39v-0.12c0-0.42-0.35-1.04-0.51-1.28c0-0.01-0.01-0.01-0.01-0.01c0,0,0,0,0,0
									c-0.04-0.04-0.09-0.03-0.11,0.02c-0.14,0.36-0.55,1.43-0.55,1.88v0.12C72.51,307.35,72.58,307.56,72.69,307.67z"/>
							</g>
						</g>
					</g>
				</g>
				<g class="st19">
					<path id="XMLID_903_" d="M74.37,299.9l-1.01,0.56v-2.4c0-1.77-1.41-2.19-2.94-1.3l0,0c-1.53,0.89-2.77,3.05-2.77,4.82v0.32
						c-0.35-0.14-0.8-0.08-1.29,0.2l0,0c-1.1,0.64-2,2.19-2,3.47v0.15l-1.41,0.82c-0.73,0.42-1.31,1.44-1.31,2.28
						c0,0.84,0.59,1.18,1.31,0.75l11.43-6.64c0.73-0.42,1.31-1.44,1.31-2.28C75.68,299.82,75.1,299.48,74.37,299.9z"/>
					<g>
						<g id="XMLID_712_">
							<g>
								<path id="XMLID_43_" d="M65.6,311.77C65.6,311.77,65.6,311.77,65.6,311.77C65.6,311.77,65.61,311.77,65.6,311.77
									c0.11,0.11,0.26,0.12,0.41,0.03c0.24-0.14,0.44-0.48,0.54-0.86c0.04-0.15,0.05-0.23,0.05-0.39v-0.12
									c0-0.42-0.35-1.04-0.51-1.28c0-0.01-0.01-0.01-0.01-0.01c0,0,0,0,0,0c-0.04-0.04-0.09-0.03-0.11,0.02
									c-0.14,0.36-0.55,1.43-0.55,1.88v0.12C65.42,311.44,65.49,311.65,65.6,311.77z"/>
							</g>
						</g>
						<g id="XMLID_592_">
							<g>
								<path id="XMLID_40_" d="M69.15,309.72C69.15,309.72,69.15,309.72,69.15,309.72C69.15,309.72,69.15,309.73,69.15,309.72
									c0.11,0.11,0.26,0.12,0.41,0.03c0.24-0.14,0.44-0.48,0.54-0.86c0.04-0.15,0.05-0.23,0.05-0.39v-0.12
									c0-0.42-0.35-1.04-0.51-1.28c0-0.01-0.01-0.01-0.01-0.01c0,0,0,0,0,0c-0.04-0.04-0.09-0.03-0.11,0.02
									c-0.14,0.36-0.55,1.43-0.55,1.88v0.12C68.96,309.4,69.03,309.61,69.15,309.72z"/>
							</g>
						</g>
						<g id="XMLID_434_">
							<g>
								<path id="XMLID_36_" d="M72.69,307.67C72.69,307.67,72.69,307.67,72.69,307.67C72.69,307.68,72.7,307.68,72.69,307.67
									c0.11,0.11,0.26,0.12,0.41,0.03c0.24-0.14,0.44-0.48,0.54-0.86c0.04-0.15,0.05-0.23,0.05-0.39v-0.12
									c0-0.42-0.35-1.04-0.51-1.28c0-0.01-0.01-0.01-0.01-0.01c0,0,0,0,0,0c-0.04-0.04-0.09-0.03-0.11,0.02
									c-0.14,0.36-0.55,1.43-0.55,1.88v0.12C72.51,307.35,72.58,307.56,72.69,307.67z"/>
							</g>
						</g>
					</g>
				</g>
			</g>
			<g>
				<g>
					<g>
						<path class="st2" d="M102.18,288.46c-0.41,0-0.79-0.1-1.12-0.29c-0.8-0.46-1.24-1.41-1.24-2.66c0-2.41,1.7-5.36,3.79-6.57
							c1.08-0.63,2.12-0.71,2.92-0.25c0.8,0.46,1.24,1.41,1.24,2.66c0,2.42-1.7,5.36-3.79,6.57
							C103.35,288.28,102.74,288.46,102.18,288.46z M105.4,279.14c-0.43,0-0.91,0.15-1.42,0.44l0,0c-1.89,1.09-3.42,3.75-3.42,5.93
							c0,0.97,0.31,1.69,0.87,2.01c0.56,0.32,1.33,0.23,2.18-0.25c1.89-1.09,3.42-3.75,3.42-5.93c0-0.97-0.31-1.69-0.87-2.01
							C105.93,279.21,105.68,279.14,105.4,279.14z M103.79,279.27L103.79,279.27L103.79,279.27z"/>
					</g>
					<g>
						<path class="st2" d="M101.31,284.65l3.7-4.26c0.17-0.2,0.5-0.03,0.43,0.23l-1.61,5.94l-0.53-2.35L101.31,284.65z"/>
					</g>
					<g>
						<path class="st2" d="M103.79,278.19c-0.21,0-0.37-0.17-0.37-0.37v-1.39c0-0.21,0.17-0.37,0.37-0.37s0.37,0.17,0.37,0.37v1.39
							C104.16,278.03,103.99,278.19,103.79,278.19z"/>
					</g>
					<g>
						<path class="st2" d="M103.79,290.74c-0.21,0-0.37-0.17-0.37-0.37v-1.39c0-0.21,0.17-0.37,0.37-0.37s0.37,0.17,0.37,0.37v1.39
							C104.16,290.57,103.99,290.74,103.79,290.74z"/>
					</g>
					<g>
						<path class="st2" d="M108.62,280.99c-0.13,0-0.25-0.07-0.32-0.19c-0.1-0.18-0.04-0.4,0.14-0.51l1.21-0.7
							c0.18-0.1,0.4-0.04,0.51,0.14c0.1,0.18,0.04,0.4-0.14,0.51l-1.21,0.7C108.75,280.97,108.68,280.99,108.62,280.99z"/>
					</g>
					<g>
						<path class="st2" d="M97.75,287.26c-0.13,0-0.25-0.07-0.32-0.19c-0.1-0.18-0.04-0.4,0.14-0.51l1.21-0.7
							c0.17-0.1,0.4-0.04,0.51,0.14c0.1,0.18,0.04,0.4-0.14,0.51l-1.21,0.7C97.88,287.25,97.82,287.26,97.75,287.26z"/>
					</g>
				</g>
				<g class="st19">
					<g>
						<g>
							<path d="M102.18,288.46c-0.41,0-0.79-0.1-1.12-0.29c-0.8-0.46-1.24-1.41-1.24-2.66c0-2.41,1.7-5.36,3.79-6.57
								c1.08-0.63,2.12-0.71,2.92-0.25c0.8,0.46,1.24,1.41,1.24,2.66c0,2.42-1.7,5.36-3.79,6.57
								C103.35,288.28,102.74,288.46,102.18,288.46z M105.4,279.14c-0.43,0-0.91,0.15-1.42,0.44l0,0c-1.89,1.09-3.42,3.75-3.42,5.93
								c0,0.97,0.31,1.69,0.87,2.01c0.56,0.32,1.33,0.23,2.18-0.25c1.89-1.09,3.42-3.75,3.42-5.93c0-0.97-0.31-1.69-0.87-2.01
								C105.93,279.21,105.68,279.14,105.4,279.14z M103.79,279.27L103.79,279.27L103.79,279.27z"/>
						</g>
						<g>
							<path d="M101.31,284.65l3.7-4.26c0.17-0.2,0.5-0.03,0.43,0.23l-1.61,5.94l-0.53-2.35L101.31,284.65z"/>
						</g>
						<g>
							<path d="M103.79,278.19c-0.21,0-0.37-0.17-0.37-0.37v-1.39c0-0.21,0.17-0.37,0.37-0.37s0.37,0.17,0.37,0.37v1.39
								C104.16,278.03,103.99,278.19,103.79,278.19z"/>
						</g>
						<g>
							<path d="M103.79,290.74c-0.21,0-0.37-0.17-0.37-0.37v-1.39c0-0.21,0.17-0.37,0.37-0.37s0.37,0.17,0.37,0.37v1.39
								C104.16,290.57,103.99,290.74,103.79,290.74z"/>
						</g>
						<g>
							<path d="M108.62,280.99c-0.13,0-0.25-0.07-0.32-0.19c-0.1-0.18-0.04-0.4,0.14-0.51l1.21-0.7c0.18-0.1,0.4-0.04,0.51,0.14
								c0.1,0.18,0.04,0.4-0.14,0.51l-1.21,0.7C108.75,280.97,108.68,280.99,108.62,280.99z"/>
						</g>
						<g>
							<path d="M97.75,287.26c-0.13,0-0.25-0.07-0.32-0.19c-0.1-0.18-0.04-0.4,0.14-0.51l1.21-0.7c0.17-0.1,0.4-0.04,0.51,0.14
								c0.1,0.18,0.04,0.4-0.14,0.51l-1.21,0.7C97.88,287.25,97.82,287.26,97.75,287.26z"/>
						</g>
					</g>
				</g>
			</g>
			<g>
				<text transform="matrix(0.4871 -0.2812 0 1 57.3535 340.1213)" class="st10 st15 st20">FRIDAY</text>
			</g>
		</g>
		<g>
			<path class="st11" d="M157.08,287.51l29.71-17.15c2.55-1.47,4.61-5.05,4.61-7.99l0-139.19c0-2.94-2.06-4.13-4.61-2.66
				l-29.71,17.15c-2.55,1.47-4.61,5.05-4.61,7.99l0,139.19C152.46,287.79,154.53,288.98,157.08,287.51z"/>
			<text transform="matrix(0.6495 -0.375 0 1 172.7934 238.5075)" class="st10 st15 st17">27°C</text>
			<text transform="matrix(0.6495 -0.375 0 1 172.7943 253.4904)" class="st10 st15 st17">11°C</text>
			<g>
				<text transform="matrix(0.6495 -0.375 0 1 158.1842 246.944)" class="st10 st15 st17">MAX</text>
			</g>
			<g>
				<text transform="matrix(0.6495 -0.375 0 1 158.1842 261.9284)" class="st10 st15 st17">MIN</text>
			</g>
			<g>
				<g>
					<g id="XMLID_146_">
						<path class="st13" d="M184.24,188.93l-2.18,1.21v-5.17c0-3.81-3.04-4.71-6.34-2.79l0,0c-3.3,1.92-5.98,6.56-5.98,10.37v0.7
							c-0.75-0.3-1.72-0.18-2.77,0.44h0c-2.37,1.38-4.3,4.72-4.3,7.46v0.32l-3.04,1.77c-1.56,0.91-2.83,3.11-2.83,4.92
							c0,1.81,1.27,2.53,2.83,1.62l24.61-14.31c1.56-0.91,2.83-3.11,2.83-4.92C187.07,188.75,185.8,188.02,184.24,188.93z"/>
					</g>
					<g>
						<g id="XMLID_142_">
							<g>
								<path id="XMLID_143_" class="st13" d="M165.35,214.5C165.35,214.5,165.35,214.5,165.35,214.5c0,0,0.01,0.01,0.02,0.02
									c0.23,0.22,0.54,0.25,0.87,0.06c0.51-0.29,0.95-1.03,1.16-1.86c0.08-0.33,0.12-0.5,0.12-0.83v-0.27
									c0-0.9-0.75-2.25-1.1-2.75c-0.01-0.01-0.02-0.02-0.03-0.03c0,0,0,0,0,0c-0.08-0.09-0.2-0.07-0.25,0.05
									c-0.3,0.77-1.18,3.09-1.18,4.05v0.27C164.95,213.81,165.1,214.26,165.35,214.5z"/>
							</g>
						</g>
						<g id="XMLID_138_">
							<g>
								<path id="XMLID_139_" class="st13" d="M172.99,210.09C172.99,210.09,172.99,210.09,172.99,210.09c0,0,0.01,0.01,0.02,0.02
									c0.23,0.22,0.54,0.25,0.87,0.06c0.51-0.29,0.95-1.03,1.16-1.86c0.08-0.33,0.12-0.5,0.12-0.83v-0.27
									c0-0.9-0.75-2.25-1.1-2.75c-0.01-0.01-0.02-0.02-0.03-0.03c0,0,0,0,0,0c-0.08-0.09-0.2-0.07-0.25,0.05
									c-0.3,0.77-1.18,3.09-1.18,4.05v0.27C172.59,209.4,172.74,209.85,172.99,210.09z"/>
							</g>
						</g>
						<g id="XMLID_134_">
							<g>
								<path id="XMLID_135_" class="st13" d="M180.62,205.68C180.62,205.68,180.62,205.68,180.62,205.68c0,0,0.01,0.01,0.02,0.02
									c0.23,0.22,0.54,0.25,0.87,0.06c0.51-0.29,0.95-1.03,1.16-1.86c0.08-0.33,0.12-0.5,0.12-0.83v-0.27
									c0-0.9-0.75-2.25-1.1-2.75c-0.01-0.01-0.02-0.02-0.03-0.03c0,0,0,0,0,0c-0.08-0.09-0.2-0.07-0.25,0.05
									c-0.3,0.77-1.18,3.09-1.18,4.05v0.27C180.23,204.99,180.38,205.44,180.62,205.68z"/>
							</g>
						</g>
					</g>
				</g>
			</g>
			<g>
				<text transform="matrix(0.4871 -0.2812 0 1 159.4774 176.256)" class="st10 st15 st21">SAT</text>
			</g>
		</g>
		<g>
			<path class="st11" d="M204.66,260.04l29.71-17.15c2.55-1.47,4.61-5.05,4.61-7.99l0-139.19c0-2.94-2.06-4.13-4.61-2.66
				l-29.71,17.15c-2.55,1.47-4.61,5.05-4.61,7.99l0,139.19C200.05,260.31,202.11,261.51,204.66,260.04z"/>
			<text transform="matrix(0.6495 -0.375 0 1 220.3743 211.029)" class="st10 st15 st17">27°C</text>
			<text transform="matrix(0.6495 -0.375 0 1 220.3752 226.0129)" class="st10 st15 st17">11°C</text>
			<g>
				<text transform="matrix(0.6495 -0.375 0 1 205.766 219.465)" class="st10 st15 st17">MAX</text>
			</g>
			<g>
				<text transform="matrix(0.6495 -0.375 0 1 205.766 234.4494)" class="st10 st15 st17">MIN</text>
			</g>
			<g>
				<g>
					<g id="XMLID_10_">
						<path class="st13" d="M231.82,166.45l-2.18,1.21v-5.17c0-3.81-3.04-4.71-6.34-2.79l0,0c-3.3,1.92-5.98,6.56-5.98,10.37v0.7
							c-0.75-0.3-1.72-0.18-2.77,0.44h0c-2.37,1.38-4.3,4.72-4.3,7.46v0.32l-3.04,1.77c-1.56,0.91-2.83,3.11-2.83,4.92
							c0,1.81,1.27,2.53,2.83,1.62l24.61-14.31c1.56-0.91,2.83-3.11,2.83-4.92C234.65,166.27,233.38,165.55,231.82,166.45z"/>
					</g>
				</g>
			</g>
			<g>
				<text transform="matrix(0.4871 -0.2812 0 1 205.7474 149.5119)" class="st10 st15 st21">SUN</text>
			</g>
			<path class="st14" d="M219.18,162.22c-1.61,2.23-2.65,4.99-2.71,7.48c-0.76-0.04-1.61,0.22-2.45,0.7
				c-1.58,0.91-2.95,2.56-3.81,4.39c-1.69-0.23-2.82-1.74-2.82-4.21c0-3.78,2.68-8.39,6-10.3
				C216.23,158.66,218.58,159.54,219.18,162.22z"/>
		</g>
		<g>
			<path class="st11" d="M252.24,232.57l29.71-17.15c2.55-1.47,4.61-5.05,4.61-7.99l0-139.19c0-2.94-2.06-4.13-4.61-2.66
				l-29.71,17.15c-2.55,1.47-4.61,5.05-4.61,7.99l0,139.19C247.63,232.85,249.69,234.05,252.24,232.57z"/>
			<text transform="matrix(0.6495 -0.375 0 1 267.9552 183.5524)" class="st10 st15 st17">27°C</text>
			<text transform="matrix(0.6495 -0.375 0 1 267.9561 198.5344)" class="st10 st15 st17">11°C</text>
			<g>
				<text transform="matrix(0.6495 -0.375 0 1 253.346 191.989)" class="st10 st15 st17">MAX</text>
			</g>
			<g>
				<text transform="matrix(0.6495 -0.375 0 1 253.346 206.9724)" class="st10 st15 st17">MIN</text>
			</g>
			<g>
				<text transform="matrix(0.4871 -0.2812 0 1 252.4453 122.6545)" class="st10 st15 st21">MON</text>
			</g>
			<path class="st14" d="M267.09,132.84c4.78-2.76,8.65-0.52,8.65,4.99c0,5.52-3.87,12.23-8.65,14.98
				c-4.78,2.76-8.65,0.52-8.65-4.99C258.44,142.31,262.31,135.6,267.09,132.84z"/>
		</g>
	</g>
</g>
<g id="Character">
	<g id="Character_8_">
		<g id="XMLID_1260_">
			<path id="XMLID_1273_" class="st2" d="M316.48,87.64c8.59,1.64,16.81,8.89,21.34,16.58c17.54-0.89,39.52,5.07,60.04,15.45
				l15.43-59.95C379.78,53.41,347.21,58.95,316.48,87.64z"/>
			<path id="XMLID_1272_" class="st22" d="M337.82,104.22c17.53-0.89,39.53,5.07,60.04,15.45l15.43-59.95
				C390.15,58.56,357.43,75.28,337.82,104.22z"/>
			<path id="XMLID_1265_" class="st23" d="M316.48,87.64c30.73-28.69,63.29-34.24,96.8-27.93c-23.14-1.16-55.86,15.56-75.46,44.5
				C333.29,96.53,325.07,89.28,316.48,87.64z"/>
			<path id="XMLID_1264_" class="st2" d="M484.59,130.9c-8.31-2.71-19.01-0.33-26.69,4.22c-14.93-9.24-37.06-14.64-60.04-15.45
				l15.43-59.95C445.68,70.37,471.53,90.94,484.59,130.9z"/>
			<path id="XMLID_1262_" class="st24" d="M457.9,135.12c-14.93-9.24-37.06-14.64-60.04-15.45l15.42-59.95
				C434.11,69.87,454.7,100.31,457.9,135.12z"/>
			<path id="XMLID_1261_" class="st25" d="M484.59,130.9c-13.06-39.96-38.91-60.53-71.3-71.18c20.82,10.15,41.41,40.59,44.61,75.4
				C465.57,130.57,476.28,128.19,484.59,130.9z"/>
		</g>
		<g id="XMLID_1092_">
			<path id="XMLID_1093_" class="st10" d="M409.94,72.77c0,0,0.15,0.01,0.43,0.04c0.14,0.01,0.31,0.02,0.52,0.04
				c0.14,0,0.33,0,0.45-0.01c0.67-0.02,0.48-0.36,0.62-0.68c0.17-0.68,0.41-1.66,0.7-2.83c0.57-2.35,1.27-5.49,1.87-8.65
				c0.31-1.58,0.58-3.17,0.82-4.67c0.11-0.75,0.25-1.47,0.33-2.16c0.09-0.69,0.18-1.34,0.26-1.94c0.08-0.6,0.13-1.16,0.19-1.65
				c0.06-0.49,0.1-0.92,0.13-1.28c0.07-0.71,0.09-1.12,0.09-1.12s-0.18,0.37-0.46,1.02c-0.15,0.33-0.32,0.72-0.5,1.18
				c-0.19,0.46-0.41,0.97-0.63,1.54c-0.22,0.57-0.46,1.18-0.71,1.83c-0.26,0.65-0.49,1.34-0.75,2.05c-0.52,1.42-1.05,2.95-1.54,4.48
				c-1,3.06-1.9,6.15-2.53,8.48c-0.31,1.17-0.57,2.14-0.75,2.82c-0.04,0.35-0.36,0.56,0.21,0.9c0.1,0.07,0.26,0.16,0.39,0.23
				c0.19,0.09,0.34,0.16,0.47,0.21C409.8,72.71,409.94,72.77,409.94,72.77z"/>
		</g>
		<g id="Character_3_">
			<g>
				<path id="XMLID_1407_" class="st26" d="M356.6,148.41c-6.84,2.27-8.51,2.77-13.24,10.14c-4.55,7.07-9.23,20.14-13.3,30.62
					c-7.52-2.14-20.43-9.09-25.52-12.43c-3.97-2.61-4.72-4.58-6.88-7.14c-2.17-2.57-6.17-8.23-7.09-4.74
					c-0.63,2.36,1.88,3.67,1.71,6.23c-0.14,1.36-8.34-3.79-11.59-6.06c-2.15-1.51-7.14,3.21-5.14,8.33c1.77,4.53,4.61,7.4,9.69,9.56
					c5.37,2.27,8.18,3.41,14.92,6.44c7.05,3.16,32.86,19.54,35.73,17.74c6.54-3.23,12.53-23.46,16.49-32.2
					C356.33,166.14,353.72,157.15,356.6,148.41z"/>
				<path id="XMLID_1406_" class="st1" d="M358.25,147.57c-2.93,3.86-1.72,2.3-2.63,8.25c-0.73,4.8-10.81,50.97-19.94,52.89
					c-4.01,0.84-29.68-15.89-36.69-19.76c2.37-3.49,4.73-7.81,5.54-12.21c4.21,2.31,19.65,10.04,24.86,11.65
					c2.4-6.71,5.35-13.6,8.11-20.37C342.75,155.13,345.72,145.97,358.25,147.57z"/>
			</g>
			<g id="XMLID_1399_">
				
					<rect id="XMLID_1405_" x="387.22" y="356.72" transform="matrix(1 -7.086332e-03 7.086332e-03 1 -2.5931 2.7934)" class="st26" width="11.35" height="21.19"/>
				<polygon id="XMLID_1404_" class="st26" points="356.38,364.33 344.01,364.84 343.83,343.4 357.85,342.84 				"/>
				<path id="XMLID_1403_" class="st27" d="M396.16,224.54c0.07,10.33,1.21,70.36,1.21,70.36c0.27,2.97,3.17,8.23,3.47,18.93
					c0.43,15.52-2.28,52.11-2.28,52.11s-4.58,3.01-11.39,0.23c0,0-8.93-51.58-10.97-66.93c-1.79-13.4-6.87-48.44-6.87-48.44
					l-6.98,45.62c0,0,1.31,7.29,0.72,16.49c-0.46,7.11-6.08,42.48-6.08,42.48s-5.65,2.66-13.06,0.21c0,0-2.39-55.02-2.56-61.54
					c-0.2-7.43,2.59-71.4,2.59-71.4L396.16,224.54z"/>
				<path id="XMLID_1402_" class="st27" d="M387.25,372.35c0,0-0.01-1.62-0.01-1.62c-0.61-0.01-0.98,0.6-1.2,2.06
					c-0.16,1.05-0.31,1.84-0.64,3.21c-0.51,2.11-0.97,3.39-1.94,5.82c-1.58,3.96-2.91,5.45-6.55,10.09
					c-0.86,1.1-2.82,2.86-3.49,4.08c-0.68,1.23-0.89,4.62,0.28,5.39c4.3,2.83,10.81,2.86,15.4,1.48c3.53-1.06,6.07-3.91,6.63-7.55
					c0.16-1.05,0.09-2.12,0.2-3.17c0.26-2.4,1.45-4.6,2.79-6.61c0.78-1.16,1.63-2.3,2.15-3.6c0.94-2.34,0.15-4.96-0.47-7.27
					c-0.54-2-1.13-4.2-1.81-4.01c0,0.24,0.01,1.24,0.01,1.24c-0.82,0.92-3.09,1.84-5.66,1.96
					C391.27,373.92,387.24,373.62,387.25,372.35z"/>
				<path id="XMLID_1401_" class="st27" d="M343.97,360.74c-0.64,0.03-1.28,1.22-2.69,2.77c-1.7,1.87-4.49,3.89-7.25,5.29
					c-4.62,2.35-13.61,5.99-17.68,7.86c-2.54,1.17-2.4,4.25,0.25,5.98c2.65,1.73,9.02,2.95,16.65,1.19
					c4.16-0.96,9.55-4.84,12.98-4.66c3.43,0.18,9.85,0.09,12.37-1.67c2.52-1.76,1.48-5.48,0.74-8.68c-0.81-3.49-1.48-9.35-2.63-9.11
					l-0.2,1.72c-1.47,2.27-11.64,2.83-12.51,0.67L343.97,360.74z"/>
				<path id="XMLID_1400_" d="M369.34,250.81c0,0-9.67-3.08-16.13-9.23c0,0,2.94,5.42,11.62,10.42l-1.79,39.96L369.34,250.81z"/>
			</g>
			<g id="XMLID_1394_">
				<path id="XMLID_1398_" class="st0" d="M377.56,147.39c2.28,0.55,9.13,1.12,13.16,2.28c2.97,0.85,2.86,4.58,3.48,7.3
					c1.98,8.73,2.33,27.06,2.33,27.06l0.11,47.74c-7.39,5.38-37.76,8.12-53.31-3.24c0,0,1.9-55.89,1.9-63.8
					c0-7.91,4.4-17.41,16.53-18.12L377.56,147.39z"/>
			</g>
			<g id="XMLID_347_">
				<g id="XMLID_1386_">
					<path id="XMLID_1393_" class="st27" d="M374.96,113.35c0,7.87-6.38,14.24-14.24,14.24c-7.87,0-14.24-6.38-14.24-14.24
						c0-7.87,6.38-14.24,14.24-14.24C368.58,99.11,374.96,105.48,374.96,113.35z"/>
					<path id="XMLID_1392_" class="st27" d="M385.34,123.47c0,0-2.31,10.84-3.23,12.62c-0.93,1.78-2.84,2.29-2.84,2.29l0.16-7.63
						L385.34,123.47z"/>
					<path id="XMLID_1391_" class="st27" d="M382.58,106.37c0,0,2.28-0.14,4.22,1.84c1.9,1.94,0.9,9.31-1.47,15.27l-4.35,0.5
						L382.58,106.37z"/>
					<path id="XMLID_1390_" class="st26" d="M379.68,123.98c0.87,0.52,2.12-1.15,3.19-2.28c1.07-1.12,4.58-2.66,6.33,1.03
						c1.78,3.76-1.55,8.73-4.31,9.59c-4.76,1.49-5.48-1.56-5.48-1.56l-0.35,17.7l0,0c-3.29,4.22-10.69,9.18-14.67,8.47
						c-3.18-0.57-3.87-5.93-0.83-9.45l0.01-5.23c0,0-4.31,0.65-6.42,0.33c-3.5-0.54-5.7-3.3-6.77-7.09
						c-1.71-6.09-2.35-11-0.91-22.98c1.59-13.12,16.85-13.26,25.09-8.07C382.83,109.63,379.68,123.98,379.68,123.98z"/>
					<path id="XMLID_1389_" class="st27" d="M348.26,106.67c1.21,0.93,2.58,1.65,4,2.19c4.55,1.71,9.7,2.09,14.43,0.94
						c0.31-0.07,4.5-1.19,4.41-1.53c0.29,1.19,0.58,2.52,1.64,3.61c1.98,2.02,3.12,2.06,3.9,2.56c0.3,2.36,0.29,5.39,0.43,7.77
						c0.05,0.8,0.05,4.98,1.95,3.78c0.62-0.39,1.2-1.34,1.66-1.86c0.71-0.82,1.38-1.7,2.19-2.43c0.56-0.51,0.53-1.7,0.56-2.38
						c0.06-1.42-0.03-2.85-0.15-4.27c-0.12-1.47-0.37-2.93-0.49-4.39c-0.07-0.85,0.35-1.6,0.58-2.43c0.25-0.9,0.42-1.84,0.37-2.78
						c-0.16-2.94-2.41-5.43-5.05-6.73c-3.7-1.82-8.16-2.1-12.2-1.77c-3.27,0.27-6.44,0.27-9.71,0.22c-0.83-0.01-9.92-0.43-9.9-0.55
						c-0.23,2,0.24,4.06,1.31,5.76c-0.96,0.04-1.92,0.08-2.87,0.13c-0.42,0.02,0.72,1.96,0.79,2.06c0.52,0.67,1.12,1.28,1.78,1.82
						C348.02,106.48,348.14,106.58,348.26,106.67z"/>
					<path id="XMLID_1388_" class="st27" d="M383.44,107.9l5.27-2.83c-0.75-1.51-2.53-2.1-3.99-1.32
						C383.26,104.54,382.69,106.39,383.44,107.9z"/>
					<path id="XMLID_1387_" class="st28" d="M363.58,142.25c0,0,7.82-1.57,10.55-3.03c1.83-0.97,3.34-2.66,3.78-3.74
						c0,0-0.51,2.32-2.15,4.41c-2,2.55-12.18,4.44-12.18,4.44L363.58,142.25z"/>
				</g>
				<g id="XMLID_923_">
					<path id="XMLID_1384_" class="st27" d="M364.38,121.2c0,0.96,0.75,1.74,1.68,1.74c0.93,0,1.68-0.78,1.68-1.75
						c0-0.96-0.75-1.74-1.68-1.74C365.13,119.46,364.38,120.24,364.38,121.2z"/>
					<path id="XMLID_1383_" class="st27" d="M366.06,115.52l3.47,1.91c0.51-1,0.15-2.23-0.81-2.76
						C367.76,114.15,366.57,114.53,366.06,115.52z"/>
					<path id="XMLID_1382_" class="st28" d="M364.24,132.61l-3.88,1.45c0.38,1.11,1.56,1.69,2.63,1.28
						C364.07,134.95,364.63,133.72,364.24,132.61z"/>
					<path id="XMLID_1369_" class="st27" d="M350.54,116.92l3.16-2.44c-0.65-0.91-1.88-1.09-2.75-0.42
						C350.08,114.73,349.89,116.01,350.54,116.92z"/>
					<path id="XMLID_1014_" class="st27" d="M351.25,120.89c0,0.93,0.73,1.68,1.62,1.68c0.9,0,1.62-0.76,1.62-1.69
						c0-0.93-0.73-1.68-1.62-1.68C351.98,119.2,351.25,119.96,351.25,120.89z"/>
					<polygon id="XMLID_924_" class="st28" points="359.94,119.55 359.38,129.77 354.05,127.95 					"/>
				</g>
				<g id="XMLID_595_">
					<path id="XMLID_922_" class="st2" d="M358.02,155.81c1,2.36,2.83,3.33,6.16,3.7c3.33,0.37,7.37-1.28,9.21-3.2l-4.14-4.12
						l-5.25,3.95l-0.45-4.4L358.02,155.81z"/>
					<path id="XMLID_921_" class="st12" d="M358.02,155.81c1,2.36,2.83,3.33,6.16,3.7c3.33,0.37,7.37-1.28,9.21-3.2l-4.14-4.12
						l-5.25,3.95l-0.45-4.4L358.02,155.81z"/>
					<g id="XMLID_912_">
						<path id="XMLID_920_" class="st2" d="M360.62,154.52c0,0-0.82,2.28-0.55,4.43c0.29,2.3,1.48,3.69,1.48,3.69
							s1.32,1.05,3.58,0.39c1.76-1.63,3.54-4.23,3.4-7.41l-4.54,0.52L360.62,154.52z"/>
						<path id="XMLID_918_" class="st2" d="M361.54,162.64c0,0-6.77,37.37-7.05,40.39c-0.27,3.02,3.89,13.73,6.47,13.82
							c2.58,0.09,7.65-9.61,7.73-12.35c0.08-2.74-3.25-41.77-3.25-41.77L361.54,162.64z"/>
						<path id="XMLID_917_" class="st12" d="M365.44,162.73c0,0-1.71,1.54-3.9-0.09l-0.11,0.59c0,0,1.29,1.32,4.08,0.53
							L365.44,162.73z"/>
					</g>
					<g id="XMLID_891_">
						<g id="XMLID_904_">
							<path id="XMLID_906_" class="st1" d="M363.99,156.14l15.16-11.56l0.06-3.03c0,0,3.55,0.94,4.34,7.17
								c-2.16,5.02-6.08,9.31-11.83,12.59l-3.19-5.68L363.99,156.14z"/>
							<path id="XMLID_905_" class="st1" d="M363.58,143.01c0,0-3.56,1.65-5.08,4.16c-1.52,2.5-1.51,10.65-1.51,10.65l3.63-3.3
								l3.37,1.62c-0.32-3.19-0.42-8.66-0.42-8.66L363.58,143.01z"/>
						</g>
					</g>
				</g>
			</g>
		</g>
		<g id="XMLID_992_">
			<path class="st26" d="M426.38,197.97c-6.33-10.8-16.33-30.29-21.4-37.02c-7.07-9.4-6.67-9.21-13.25-11.27
				c-1.07,3.17-3.53,16.25,1.19,25.65l16.38,23.3c-6.66,1.59-18.56,4.7-22.59,3.87l-1.29,11.98c23.76-2.03,34.7-2.34,41.49-6.72
				C429.87,205.87,428.35,201.34,426.38,197.97z"/>
			<path id="XMLID_1026_" class="st1" d="M393.83,177c-3.6-4.26-6.18-17.75-3.11-27.33c6.23,0.53,7.7,1.79,12.21,7.33
				c6.56,8.07,13.78,22.55,16.71,27.38c2.92,4.83,9.99,17.3,9.69,19.99c-0.29,2.68-2.53,5.27-8.32,6.87
				c-5.79,1.6-31.2,3.27-31.2,3.27s-1.22-5.2-1.1-12.02c7.64-1.49,14.59-2.93,19.09-4.21C407.8,198.28,397.03,180.79,393.83,177z"/>
			<path id="XMLID_1025_" class="st26" d="M387.78,202.71c-1.58-0.17-2.5-0.8-3.15-1.24c-1.05-0.72-2.04-1.53-3.15-2.17
				c-2.67-1.56-5.71-2.64-8.58-3.77c-0.28-0.11-0.59-0.23-0.89-0.17c-0.34,0.06-0.61,0.34-0.75,0.66c-0.14,0.31-0.18,0.66-0.21,1.01
				c-0.07,0.73,0.1,1.46,0.02,2.18C370.19,206.45,386.14,206.28,387.78,202.71z"/>
			<g>
				<path class="st2" d="M375.89,218.52L375.89,218.52l4.87-19.34l-5.84-1.47l-4.86,19.34c-0.16,0.45,0,1,0.52,1.5
					c0.98,0.95,2.83,1.41,4.14,1.04C375.42,219.39,375.81,218.99,375.89,218.52z"/>
				<path class="st23" d="M375.89,218.52L375.89,218.52l4.87-19.34l-5.84-1.47l-4.86,19.34c-0.16,0.45,0,1,0.52,1.5
					c0.98,0.95,2.83,1.41,4.14,1.04C375.42,219.39,375.81,218.99,375.89,218.52z"/>
				<path class="st2" d="M376.06,196.73c1.31-0.37,3.16,0.09,4.14,1.04c0.98,0.95,0.71,2.02-0.6,2.39s-3.16-0.09-4.14-1.04
					C374.49,198.17,374.75,197.1,376.06,196.73z"/>
				<path class="st19" d="M376.06,196.73c1.31-0.37,3.16,0.09,4.14,1.04c0.98,0.95,0.71,2.02-0.6,2.39s-3.16-0.09-4.14-1.04
					C374.49,198.17,374.75,197.1,376.06,196.73z"/>
			</g>
			<g id="XMLID_1003_">
				<g id="XMLID_1010_">
					<path id="XMLID_315_" class="st27" d="M376.33,197.96L409.85,67.3c0.23-0.9,1.15-1.44,2.05-1.21c0.9,0.23,1.44,1.15,1.21,2.05
						L379.59,198.8C378.74,199.48,376.56,198.89,376.33,197.96z"/>
				</g>
			</g>
			<path id="XMLID_999_" class="st26" d="M387.78,202.77c-1.61,0.66-4.71-0.01-7.9-0.23c-2.57,1.81-5.78-0.29-5.85-1.44l-0.7-2.46
				c0,0-2.66-0.14-3.88,1.01c-1.22,1.15-0.5,2.8-1,3.47c-0.5,0.68-1.07,1.89-1.29,2.75c-0.21,0.86-1.29,2.58-1.22,3.44
				c0.07,0.86,0,2.81,0,2.81s1.57,3.68,6.34,4.02s13.14-1.65,13.14-1.65L387.78,202.77z"/>
		</g>
		<g id="XMLID_418_">
			<path id="XMLID_890_" class="st2" d="M404.73,92.97c18.48,1.43,35.15,7.88,50.02,19.36c15.12,2.63,24.44,9.25,29.84,18.57
				c-11.65-40.65-40.19-63.18-71.3-71.18s-66.98-2.05-96.8,27.93c9.22-5.56,20.58-6.85,35.09-1.86
				C370.14,82.9,387.86,85.3,404.73,92.97z"/>
			<path id="XMLID_763_" class="st3" d="M351.57,85.78c18.56-2.88,36.28-0.48,53.16,7.18l8.55-33.25
				C377.74,50.57,351.57,85.78,351.57,85.78z"/>
			<path id="XMLID_761_" class="st19" d="M316.48,87.64c29.82-29.98,65.69-35.93,96.8-27.93c-35.54-9.15-61.71,26.06-61.71,26.06
				C337.06,80.79,325.71,82.08,316.48,87.64z"/>
			<path id="XMLID_437_" class="st12" d="M454.75,112.33c-14.87-11.48-31.54-17.93-50.02-19.36l8.55-33.25
				C448.83,68.87,454.75,112.33,454.75,112.33z"/>
			<path id="XMLID_420_" class="st23" d="M484.59,130.9c-11.65-40.65-40.19-63.18-71.3-71.18c35.54,9.15,41.46,52.61,41.46,52.61
				C469.87,114.96,479.19,121.58,484.59,130.9z"/>
		</g>
	</g>
</g>
</svg>
